<?xml version="1.0"?>
<svg xmlns="http://www.w3.org/2000/svg" xmlns:xlink="http://www.w3.org/1999/xlink" version="1.1" id="Layer_1" x="0px" y="0px" viewBox="0 0 512.001 512.001" style="enable-background:new 0 0 512.001 512.001;" xml:space="preserve" width="512px" height="512px" class=""><g><g>
	<g>
		<path d="M190.39,248.431l-4.812-22.033l-30.067-15.43c-12.957-6.65-20.388-19.802-20.375-33.429l-19.197,4.193    c-4.542,0.992-7.419,5.478-6.427,10.021l15.497,70.959c0.992,4.543,5.478,7.42,10.021,6.427l48.935-10.687    C188.505,257.459,191.383,252.972,190.39,248.431z" data-original="#000000" class="active-path" data-old_color=" rgb(0, 0, 0)" fill="#000000"/>
	</g>
</g><g>
	<g>
		<path d="M325.121,0c-23.273,0-42.141,18.866-42.141,42.141c0,23.371,19.005,42.141,42.141,42.141    c23.197,0,42.141-18.815,42.141-42.141C367.261,18.866,348.394,0,325.121,0z" data-original="#000000" class="active-path" data-old_color=" rgb(0, 0, 0)" fill="#000000"/>
	</g>
</g><g>
	<g>
		<path d="M312.823,187.157c-5.858-10.011-2.496-22.855,7.516-28.713l24.459-14.31l-3.233-5.527c-1.818-3.107-5.81-4.15-8.915-2.334    l-40.157,23.495c-3.106,1.817-4.15,5.808-2.334,8.914l32.164,54.974c-0.937-6.145-0.371-12.211,1.439-17.802L312.823,187.157z" data-original="#000000" class="active-path" data-old_color=" rgb(0, 0, 0)" fill="#000000"/>
	</g>
</g><g>
	<g>
		<path d="M376.717,149.774c-1.818-3.107-5.809-4.15-8.915-2.334l-40.156,23.494c-3.106,1.817-4.15,5.808-2.334,8.914l6.812,11.643    c5.267-5.754,12.3-9.995,20.506-11.764l36.953-7.963L376.717,149.774z" data-original="#000000" class="active-path" data-old_color=" rgb(0, 0, 0)" fill="#000000"/>
	</g>
</g><g>
	<g>
		<path d="M457.426,192.274c-21.436-45.346-27.957-59.14-30.054-63.574c-8.898-18.823-28.101-30.988-48.923-30.988    c-58.742,0-58.668,0-108.016,0c-26.398,0-47.983,21.477-48.118,47.878l-0.174,34.567l-40.226-20.644    c-9.992-5.128-22.248-1.186-27.373,8.806c-5.127,9.99-1.185,22.247,8.806,27.373l69.677,35.758    c13.511,6.933,29.541-2.888,29.616-17.988l0.339-67.666v-0.002c0.012-2.225,1.822-4.019,4.046-4.012    c2.225,0.007,4.023,1.811,4.023,4.036c0.001,51.155,0.009,341.782,0.009,341.782c0,13.476,10.924,24.4,24.4,24.4    c13.476,0,24.4-10.924,24.4-24.4V292.571h10.533V487.6c0,13.476,10.924,24.4,24.4,24.4c13.476,0,24.4-10.924,24.4-24.4    c0-203.562-0.443-231.937-0.443-233.788c-9.968,2.148-25.173,7.186-41.212-4.776c-9.24,2.161-18.398-2.164-22.882-9.829    l-36.986-63.216c-5.844-9.988-2.472-22.87,7.516-28.713l40.156-23.495c10.003-5.851,22.867-2.474,28.713,7.516l3.233,5.527    l3.206-1.876c10.188-5.961,22.998-2.251,28.713,7.516l0.205,0.35c0.714,2.566-0.545-0.412,20.294,43.669l-53.153,11.453    c-12.361,2.664-19.328,15.851-14.535,27.587c3.659,8.961,13.319,14.275,23.102,12.167l78.205-16.851    C456.294,218.05,462.927,203.838,457.426,192.274z" data-original="#000000" class="active-path" data-old_color=" rgb(0, 0, 0)" fill="#000000"/>
	</g>
</g><g>
	<g>
		<path d="M203.786,338.149H69.939c-9.559,0-17.308,7.749-17.308,17.308s7.749,17.308,17.308,17.308h0.165l19.445,131.403    c0.667,4.5,4.528,7.833,9.078,7.833h76.472c4.549,0,8.411-3.333,9.078-7.833l19.445-131.404h0.165    c9.559,0,17.308-7.749,17.308-17.308C221.094,345.898,213.345,338.149,203.786,338.149z" data-original="#000000" class="active-path" data-old_color=" rgb(0, 0, 0)" fill="#000000"/>
	</g>
</g></g> </svg>
